<svg width="58" height="58" viewBox="0 0 58 58" fill="none" xmlns="http://www.w3.org/2000/svg">
<g id="coffee-cup-svgrepo-com(4) 1" clip-path="url(#clip0_1_2537)">
<g id="SVGRepo_iconCarrier">
<g id="Group">
<path id="Vector" d="M11.498 43.664H16.3194C20.0843 47.4932 25.0986 49.5969 30.4832 49.5969C41.4423 49.5969 50.3584 40.6808 50.3584 29.7217V20.229C50.3584 19.7374 49.9601 19.3391 49.4685 19.3391H11.4979C11.0063 19.3391 10.608 19.7374 10.608 20.229V22.9361C8.17017 23.1416 5.90594 24.19 4.15633 25.9397C2.1955 27.9008 1.11548 30.5081 1.11548 33.2814C1.11548 36.0547 2.1955 38.662 4.15656 40.623C6.11762 42.584 8.72489 43.664 11.498 43.664ZM5.41493 27.1983C7.03948 25.5735 9.19976 24.6787 11.4979 24.6787C11.9895 24.6787 12.3879 24.2804 12.3879 23.7888V21.119H48.5785V29.7217C48.5785 39.6995 40.461 47.817 30.4832 47.817C25.4635 47.817 20.797 45.8087 17.3434 42.1621C17.1754 41.9846 16.9416 41.8841 16.6973 41.8841H11.498C9.20036 41.8841 7.04007 40.9893 5.41505 39.3644C3.79015 37.7395 2.89535 35.5792 2.89535 33.2814C2.89535 30.9835 3.79015 28.8232 5.41493 27.1983Z" fill="black" stroke="black" stroke-width="1.53846"/>
<path id="Vector_2" d="M11.4981 40.1042H14.0385C14.3566 40.1042 14.6504 39.9344 14.8094 39.6588C14.9683 39.3833 14.968 39.0438 14.8088 38.7685C13.225 36.0307 12.3879 32.9023 12.3879 29.7216V27.3484C12.3879 26.8568 11.9896 26.4585 11.498 26.4585C9.67554 26.4585 7.96212 27.1682 6.67361 28.4568C5.38499 29.7454 4.67529 31.4589 4.67529 33.2813C4.67529 35.1037 5.38499 36.8171 6.67373 38.1058C7.96235 39.3945 9.67578 40.1042 11.4981 40.1042ZM7.93222 29.7153C8.67134 28.9762 9.59972 28.4947 10.6081 28.3161V29.7216C10.6081 32.7081 11.2803 35.6528 12.5627 38.3243H11.4981C10.1511 38.3243 8.8848 37.7997 7.93233 36.8472C6.97975 35.8946 6.45516 34.6283 6.45516 33.2813C6.45516 31.9342 6.97975 30.6679 7.93222 29.7153Z" fill="black" stroke="black" stroke-width="1.53846"/>
<path id="Vector_3" d="M30.4832 46.0372C34.1961 46.0372 37.697 44.8166 40.6076 42.5072C40.9925 42.2017 41.057 41.6419 40.7515 41.2569C40.4461 40.8719 39.8862 40.8075 39.5012 41.1129C36.9086 43.17 33.7902 44.2574 30.4832 44.2574C22.4682 44.2574 15.9476 37.7367 15.9476 29.7218L15.9477 24.7139C17.1123 24.8124 17.7946 25.1063 18.5617 25.4368C19.5445 25.8602 20.6584 26.34 22.7701 26.34C24.8818 26.34 25.9958 25.8602 26.9785 25.4368C27.9228 25.03 28.7381 24.6788 30.4827 24.6788C32.2275 24.6788 33.0429 25.03 33.9872 25.4368C34.9699 25.8602 36.084 26.34 38.1957 26.34C40.3075 26.34 41.4214 25.8602 42.4043 25.4369C43.1716 25.1063 43.8539 24.8124 45.0189 24.7139L45.0188 29.7218C45.0188 33.0289 43.9314 36.1472 41.8744 38.7398C41.5688 39.1248 41.6334 39.6846 42.0183 39.9901C42.4031 40.2956 42.9629 40.2311 43.2686 39.8461C45.578 36.9357 46.7987 33.4347 46.7987 29.7218L46.7988 23.7889C46.7988 23.5528 46.705 23.3266 46.5382 23.1595C46.3713 22.9927 46.145 22.8989 45.9088 22.8989C43.797 22.8989 42.683 23.3788 41.7002 23.8021C40.7559 24.2089 39.9405 24.5601 38.1957 24.5601C36.451 24.5601 35.6356 24.2089 34.6913 23.8021C33.7086 23.3788 32.5945 22.8989 30.4827 22.8989C28.3711 22.8989 27.2571 23.3788 26.2744 23.8021C25.3301 24.2089 24.5147 24.5601 22.7701 24.5601C21.0256 24.5601 20.2101 24.2089 19.2661 23.8021C18.2834 23.3788 17.1694 22.8989 15.0578 22.8989C14.5663 22.8989 14.1678 23.2973 14.1678 23.7889L14.1677 29.7218C14.1677 38.718 21.4869 46.0372 30.4832 46.0372Z" fill="black" stroke="black" stroke-width="1.53846"/>
<path id="Vector_4" d="M55.9949 50.9436H4.97197C4.48037 50.9436 4.08203 51.3419 4.08203 51.8335C4.08203 52.3251 4.48037 52.7235 4.97197 52.7235H5.48718L6.00049 54.5197C6.37806 55.8413 7.75046 56.8765 9.12499 56.8765H51.8419C53.2164 56.8765 54.5888 55.8412 54.9665 54.5197L55.4797 52.7235H55.9949C56.4865 52.7235 56.8848 52.3251 56.8848 51.8335C56.8848 51.3419 56.4865 50.9436 55.9949 50.9436ZM53.2551 54.0306C53.0956 54.5884 52.422 55.0965 51.8419 55.0965H9.12499C8.54476 55.0965 7.87125 54.5884 7.7119 54.0306L7.33848 52.7234H53.6286L53.2551 54.0306Z" fill="black" stroke="black" stroke-width="1.53846"/>
<path id="Vector_5" d="M25.6964 14.1282C27.8445 16.2764 30.6119 17.559 33.0987 17.5592C34.7293 17.5592 36.1288 17.0214 37.1461 16.0042C38.4698 14.6804 38.9735 12.7282 38.5646 10.5068C38.1779 8.4064 37.0078 6.29239 35.2699 4.55453C33.1215 2.40623 30.3542 1.12354 27.8674 1.12354C26.2371 1.12354 24.8376 1.66117 23.8204 2.67843C22.4965 4.00241 21.9928 5.95469 22.4016 8.17609C22.7883 10.2763 23.9585 12.3903 25.6964 14.1282ZM34.0113 5.81313C35.4968 7.29849 36.4921 9.07979 36.8141 10.8289C37.0429 12.0714 36.9043 13.1749 36.4277 14.027L30.6332 8.23269C30.2856 7.88526 29.7222 7.88526 29.3746 8.23269C29.0271 8.58036 29.0271 9.14374 29.3746 9.49129L35.1698 15.2863C34.5887 15.6107 33.8873 15.7793 33.0994 15.7793C31.0737 15.7791 28.7767 14.6914 26.955 12.8696C25.4695 11.3842 24.4742 9.60295 24.1523 7.85381C23.9235 6.61135 24.0621 5.50783 24.5387 4.65551L26.8577 6.97444C27.0315 7.14815 27.2593 7.23501 27.487 7.23501C27.7147 7.23501 27.9426 7.14815 28.1164 6.97444C28.4639 6.62677 28.4639 6.06338 28.1164 5.71583L25.797 3.39643C26.3782 3.07202 27.0797 2.90352 27.8678 2.90352C29.8926 2.90329 32.1894 3.99102 34.0113 5.81313Z" fill="black" stroke="black" stroke-width="1.53846"/>
</g>
</g>
</g>
<defs>
<clipPath id="clip0_1_2537">
<rect width="58" height="58" fill="white"/>
</clipPath>
</defs>
</svg>
