<svg width="30" height="30" viewBox="0 0 30 30" fill="none" xmlns="http://www.w3.org/2000/svg">
<circle cx="15" cy="15" r="15" fill="#4267B3"/>
<g clip-path="url(#clip0_2575_382)">
<path d="M24.9986 15.061C24.9986 9.50354 20.5211 4.99854 14.9986 4.99854C9.47359 4.99979 4.99609 9.50354 4.99609 15.0623C4.99609 20.0835 8.65359 24.246 13.4336 25.001V17.9698H10.8961V15.0623H13.4361V12.8435C13.4361 10.3223 14.9298 8.92979 17.2136 8.92979C18.3086 8.92979 19.4523 9.12604 19.4523 9.12604V11.601H18.1911C16.9498 11.601 16.5623 12.3773 16.5623 13.1735V15.061H19.3348L18.8923 17.9685H16.5611V24.9998C21.3411 24.2448 24.9986 20.0823 24.9986 15.061Z" fill="black"/>
</g>
<defs>
<clipPath id="clip0_2575_382">
<rect width="20" height="20" fill="white" transform="translate(5 5)"/>
</clipPath>
</defs>
</svg>
