<svg width="30" height="30" viewBox="0 0 30 30" fill="none" xmlns="http://www.w3.org/2000/svg">
<circle cx="15" cy="15" r="15" fill="url(#paint0_linear_2575_380)"/>
<g clip-path="url(#clip0_2575_380)">
<path d="M15 6C12.5576 6 12.2505 6.01125 11.2909 6.054C10.3313 6.099 9.67762 6.24975 9.105 6.4725C8.50407 6.69787 7.95991 7.05232 7.51088 7.51088C7.05232 7.95991 6.69787 8.50407 6.4725 9.105C6.24975 9.6765 6.09787 10.3312 6.054 11.2875C6.01125 12.2494 6 12.5554 6 15.0011C6 17.4446 6.01125 17.7506 6.054 18.7103C6.099 19.6688 6.24975 20.3224 6.4725 20.895C6.70312 21.4867 7.01025 21.9885 7.51088 22.4891C8.01038 22.9897 8.51213 23.298 9.10388 23.5275C9.67763 23.7502 10.3301 23.9021 11.2886 23.946C12.2494 23.9888 12.5554 24 15 24C17.4446 24 17.7495 23.9888 18.7103 23.946C19.6676 23.901 20.3235 23.7502 20.8961 23.5275C21.4966 23.302 22.0404 22.9475 22.4891 22.4891C22.9897 21.9885 23.2969 21.4867 23.5275 20.895C23.7491 20.3224 23.901 19.6688 23.946 18.7103C23.9888 17.7506 24 17.4446 24 15C24 12.5554 23.9888 12.2494 23.946 11.2886C23.901 10.3313 23.7491 9.6765 23.5275 9.105C23.3021 8.50407 22.9477 7.95991 22.4891 7.51088C22.0401 7.05232 21.4959 6.69787 20.895 6.4725C20.3212 6.24975 19.6665 6.09787 18.7091 6.054C17.7484 6.01125 17.4435 6 14.9978 6H15ZM14.1934 7.62225H15.0011C17.4041 7.62225 17.6887 7.63013 18.6371 7.674C19.5146 7.71338 19.9916 7.86075 20.3089 7.98338C20.7285 8.1465 21.0289 8.34225 21.3439 8.65725C21.6589 8.97225 21.8535 9.2715 22.0166 9.69225C22.1404 10.0084 22.2866 10.4854 22.326 11.3629C22.3699 12.3113 22.3789 12.5959 22.3789 14.9978C22.3789 17.3996 22.3699 17.6854 22.326 18.6337C22.2866 19.5112 22.1392 19.9871 22.0166 20.3044C21.8713 20.6946 21.6411 21.0478 21.3427 21.3383C21.0277 21.6532 20.7285 21.8479 20.3078 22.011C19.9928 22.1348 19.5157 22.281 18.6371 22.3215C17.6887 22.3643 17.4041 22.3744 15.0011 22.3744C12.5981 22.3744 12.3124 22.3643 11.364 22.3215C10.4865 22.281 10.0106 22.1348 9.69338 22.011C9.30281 21.8662 8.9493 21.6364 8.65837 21.3383C8.35943 21.0476 8.12887 20.694 7.98338 20.3032C7.86075 19.9871 7.71338 19.5101 7.674 18.6326C7.63125 17.6842 7.62225 17.3996 7.62225 14.9955C7.62225 12.5914 7.63125 12.309 7.674 11.3606C7.7145 10.4831 7.86075 10.0061 7.9845 9.68887C8.14762 9.26925 8.34337 8.96887 8.65837 8.65387C8.97337 8.33888 9.27262 8.14425 9.69338 7.98112C10.0106 7.85738 10.4865 7.71113 11.364 7.67062C12.1943 7.63238 12.516 7.62113 14.1934 7.62V7.62225ZM19.8049 9.11625C19.663 9.11625 19.5226 9.14419 19.3916 9.19846C19.2605 9.25274 19.1415 9.33229 19.0412 9.43257C18.9409 9.53286 18.8614 9.65192 18.8071 9.78295C18.7528 9.91398 18.7249 10.0544 18.7249 10.1962C18.7249 10.3381 18.7528 10.4785 18.8071 10.6095C18.8614 10.7406 18.9409 10.8596 19.0412 10.9599C19.1415 11.0602 19.2605 11.1398 19.3916 11.194C19.5226 11.2483 19.663 11.2762 19.8049 11.2762C20.0913 11.2762 20.366 11.1625 20.5686 10.9599C20.7711 10.7574 20.8849 10.4827 20.8849 10.1962C20.8849 9.90982 20.7711 9.63511 20.5686 9.43257C20.366 9.23004 20.0913 9.11625 19.8049 9.11625ZM15.0011 10.3785C14.3881 10.3689 13.7793 10.4814 13.2101 10.7094C12.6409 10.9374 12.1228 11.2763 11.6859 11.7065C11.249 12.1366 10.902 12.6494 10.6652 13.2149C10.4284 13.7804 10.3064 14.3874 10.3064 15.0006C10.3064 15.6137 10.4284 16.2207 10.6652 16.7862C10.902 17.3517 11.249 17.8645 11.6859 18.2946C12.1228 18.7248 12.6409 19.0637 13.2101 19.2917C13.7793 19.5197 14.3881 19.6322 15.0011 19.6226C16.2145 19.6037 17.3717 19.1084 18.2231 18.2437C19.0745 17.3789 19.5516 16.2141 19.5516 15.0006C19.5516 13.7871 19.0745 12.6222 18.2231 11.7575C17.3717 10.8927 16.2145 10.3974 15.0011 10.3785ZM15.0011 11.9996C15.3951 11.9996 15.7853 12.0772 16.1493 12.228C16.5133 12.3788 16.8441 12.5998 17.1227 12.8784C17.4013 13.157 17.6223 13.4878 17.7731 13.8518C17.9239 14.2158 18.0015 14.606 18.0015 15C18.0015 15.394 17.9239 15.7842 17.7731 16.1482C17.6223 16.5122 17.4013 16.843 17.1227 17.1216C16.8441 17.4002 16.5133 17.6212 16.1493 17.772C15.7853 17.9228 15.3951 18.0004 15.0011 18.0004C14.2054 18.0004 13.4422 17.6843 12.8795 17.1216C12.3169 16.5589 12.0008 15.7957 12.0008 15C12.0008 14.2043 12.3169 13.4411 12.8795 12.8784C13.4422 12.3157 14.2054 11.9996 15.0011 11.9996Z" fill="black"/>
</g>
<defs>
<linearGradient id="paint0_linear_2575_380" x1="15" y1="0" x2="15" y2="30" gradientUnits="userSpaceOnUse">
<stop stop-color="#7F37C9"/>
<stop offset="0.5" stop-color="#FF2992"/>
<stop offset="1" stop-color="#FF9807"/>
</linearGradient>
<clipPath id="clip0_2575_380">
<rect width="18" height="18" fill="white" transform="translate(6 6)"/>
</clipPath>
</defs>
</svg>
