<svg width="30" height="30" viewBox="0 0 30 30" fill="none" xmlns="http://www.w3.org/2000/svg">
<circle cx="15" cy="15" r="15" fill="#25D366"/>
<g clip-path="url(#clip0_2575_381)">
<path d="M22.8513 7.05295C21.8887 6.08104 20.7423 5.31053 19.4788 4.78638C18.2152 4.26223 16.86 3.99493 15.4921 4.00007C9.76044 4.00007 5.08925 8.66995 5.084 14.4029C5.084 16.2391 5.56438 18.0254 6.47131 19.607L5 25.0001L10.5177 23.5537C12.0435 24.3861 13.7541 24.8217 15.4921 24.8203H15.4974C21.2304 24.8203 25.9002 20.1504 25.9055 14.4121C25.9067 13.0446 25.6373 11.6903 25.1129 10.4273C24.5885 9.1643 23.8208 8.0175 22.8513 7.05295ZM15.4921 23.0589C13.9423 23.0577 12.4212 22.6407 11.0874 21.8514L10.7724 21.6624L7.499 22.5208L8.37312 19.3274L8.16837 18.998C7.30187 17.6203 6.8436 16.0252 6.84669 14.3977C6.84669 9.63857 10.7277 5.7562 15.4974 5.7562C16.6337 5.75416 17.7591 5.97706 18.8088 6.41204C19.8586 6.84703 20.8118 7.48549 21.6136 8.29064C22.4181 9.09277 23.0558 10.0462 23.4901 11.0959C23.9244 12.1456 24.1467 13.2709 24.1441 14.4069C24.1389 19.1831 20.2578 23.0589 15.4921 23.0589ZM20.2368 16.583C19.9782 16.4531 18.7012 15.8244 18.461 15.7351C18.2221 15.6498 18.0476 15.6052 17.8769 15.8651C17.7024 16.1236 17.2036 16.7129 17.054 16.8823C16.9044 17.0568 16.7495 17.0765 16.4896 16.9479C16.2311 16.8166 15.3924 16.5436 14.4001 15.6551C13.6257 14.966 13.1073 14.1129 12.9524 13.8543C12.8028 13.5944 12.938 13.4553 13.0679 13.3254C13.1821 13.2099 13.3265 13.0209 13.4564 12.8713C13.5877 12.7216 13.631 12.6114 13.7163 12.4381C13.8016 12.2623 13.7609 12.1126 13.6966 11.9827C13.631 11.8528 13.1126 10.5704 12.8934 10.0533C12.6834 9.54276 12.4694 9.61364 12.3093 9.60707C12.1597 9.59788 11.9851 9.59789 11.8106 9.59789C11.6788 9.60124 11.5491 9.63176 11.4296 9.68755C11.3101 9.74333 11.2034 9.82317 11.1162 9.92207C10.8774 10.1819 10.2093 10.8106 10.2093 12.0929C10.2093 13.3753 11.1412 14.6077 11.2724 14.7823C11.4011 14.9568 13.1021 17.5805 15.7126 18.7093C16.3295 18.9783 16.8151 19.1371 17.1944 19.2579C17.8179 19.4574 18.3809 19.4272 18.8298 19.3629C19.3286 19.2868 20.3667 18.7329 20.5859 18.1252C20.8012 17.5162 20.8012 16.9964 20.7356 16.8875C20.6712 16.7773 20.4967 16.7129 20.2368 16.583Z" fill="black"/>
</g>
<defs>
<clipPath id="clip0_2575_381">
<rect width="21" height="21" fill="white" transform="translate(5 4)"/>
</clipPath>
</defs>
</svg>
